<svg width="500" height="750" viewBox="0 0 500 750" fill="none" xmlns="http://www.w3.org/2000/svg">
<rect width="500" height="750" fill="#161C2C" fill-opacity="0.8"/>
<path d="M200.315 367H187.315V363.56L190.795 361.96V343.48L187.315 341.88V338.44H200.315V341.88L196.835 343.48V361.96L200.315 363.56V367ZM230.342 344.76C232.822 344.76 234.689 345.4 235.942 346.68C237.222 347.933 237.862 349.96 237.862 352.76V367H231.902V354.24C231.902 352.667 231.635 351.493 231.102 350.72C230.569 349.92 229.742 349.52 228.622 349.52C227.049 349.52 225.929 350.08 225.262 351.2C224.595 352.32 224.262 353.933 224.262 356.04V367H218.302V354.24C218.302 353.2 218.182 352.333 217.942 351.64C217.702 350.947 217.342 350.427 216.862 350.08C216.382 349.707 215.769 349.52 215.022 349.52C213.929 349.52 213.062 349.8 212.422 350.36C211.782 350.92 211.329 351.733 211.062 352.8C210.795 353.867 210.662 355.173 210.662 356.72V367H204.702V345.16H209.262L210.062 347.96H210.382C210.835 347.213 211.395 346.613 212.062 346.16C212.729 345.68 213.462 345.333 214.262 345.12C215.089 344.88 215.915 344.76 216.742 344.76C218.342 344.76 219.702 345.027 220.822 345.56C221.942 346.067 222.795 346.867 223.382 347.96H223.902C224.569 346.84 225.489 346.027 226.662 345.52C227.862 345.013 229.089 344.76 230.342 344.76ZM252.959 344.72C255.892 344.72 258.132 345.36 259.679 346.64C261.252 347.893 262.039 349.827 262.039 352.44V367H257.879L256.719 364.04H256.559C255.946 364.813 255.306 365.453 254.639 365.96C253.999 366.467 253.252 366.827 252.399 367.04C251.572 367.28 250.546 367.4 249.319 367.4C248.039 367.4 246.879 367.16 245.839 366.68C244.826 366.173 244.026 365.413 243.439 364.4C242.852 363.36 242.559 362.053 242.559 360.48C242.559 358.16 243.372 356.453 244.999 355.36C246.626 354.24 249.066 353.627 252.319 353.52L256.119 353.4V352.44C256.119 351.293 255.812 350.453 255.199 349.92C254.612 349.387 253.786 349.12 252.719 349.12C251.652 349.12 250.612 349.28 249.599 349.6C248.586 349.893 247.572 350.267 246.559 350.72L244.599 346.68C245.772 346.067 247.066 345.587 248.479 345.24C249.919 344.893 251.412 344.72 252.959 344.72ZM253.799 356.96C251.879 357.013 250.546 357.36 249.799 358C249.052 358.64 248.679 359.48 248.679 360.52C248.679 361.427 248.946 362.08 249.479 362.48C250.012 362.853 250.706 363.04 251.559 363.04C252.839 363.04 253.919 362.667 254.799 361.92C255.679 361.147 256.119 360.067 256.119 358.68V356.88L253.799 356.96ZM275.22 344.76C276.553 344.76 277.753 345.027 278.82 345.56C279.886 346.093 280.793 346.893 281.54 347.96H281.7L282.18 345.16H287.22V367.04C287.22 369.12 286.806 370.867 285.98 372.28C285.18 373.693 283.966 374.76 282.34 375.48C280.713 376.227 278.7 376.6 276.3 376.6C274.753 376.6 273.313 376.507 271.98 376.32C270.673 376.133 269.393 375.8 268.14 375.32V370.56C269.473 371.12 270.846 371.533 272.26 371.8C273.7 372.093 275.166 372.24 276.66 372.24C278.206 372.24 279.353 371.827 280.1 371C280.873 370.173 281.26 368.933 281.26 367.28V366.84C281.26 366.387 281.273 365.92 281.3 365.44C281.353 364.96 281.393 364.533 281.42 364.16H281.26C280.513 365.307 279.62 366.133 278.58 366.64C277.54 367.147 276.366 367.4 275.06 367.4C272.473 367.4 270.446 366.413 268.98 364.44C267.54 362.44 266.82 359.667 266.82 356.12C266.82 352.547 267.566 349.76 269.06 347.76C270.553 345.76 272.606 344.76 275.22 344.76ZM277.1 349.6C276.166 349.6 275.38 349.853 274.74 350.36C274.126 350.84 273.66 351.573 273.34 352.56C273.046 353.52 272.9 354.733 272.9 356.2C272.9 358.387 273.246 360.027 273.94 361.12C274.633 362.187 275.713 362.72 277.18 362.72C277.953 362.72 278.62 362.627 279.18 362.44C279.74 362.227 280.193 361.893 280.54 361.44C280.913 360.96 281.193 360.347 281.38 359.6C281.566 358.853 281.66 357.947 281.66 356.88V356.16C281.66 354.587 281.5 353.32 281.18 352.36C280.86 351.4 280.366 350.707 279.7 350.28C279.033 349.827 278.166 349.6 277.1 349.6ZM302.452 344.76C304.479 344.76 306.212 345.147 307.652 345.92C309.119 346.693 310.252 347.813 311.052 349.28C311.852 350.747 312.252 352.547 312.252 354.68V357.56H298.172C298.225 359.24 298.719 360.56 299.652 361.52C300.612 362.48 301.932 362.96 303.612 362.96C305.025 362.96 306.305 362.827 307.452 362.56C308.599 362.267 309.785 361.827 311.012 361.24V365.84C309.945 366.373 308.812 366.76 307.612 367C306.439 367.267 305.012 367.4 303.332 367.4C301.145 367.4 299.212 367 297.532 366.2C295.852 365.373 294.532 364.133 293.572 362.48C292.612 360.827 292.132 358.747 292.132 356.24C292.132 353.68 292.559 351.56 293.412 349.88C294.292 348.173 295.505 346.893 297.052 346.04C298.599 345.187 300.399 344.76 302.452 344.76ZM302.492 349C301.345 349 300.385 349.373 299.612 350.12C298.865 350.867 298.425 352.027 298.292 353.6H306.652C306.652 352.72 306.492 351.933 306.172 351.24C305.879 350.547 305.425 350 304.812 349.6C304.199 349.2 303.425 349 302.492 349ZM144.311 407H136.631L124.191 385.4H124.031C124.084 386.307 124.124 387.213 124.151 388.12C124.204 389.027 124.244 389.933 124.271 390.84C124.324 391.747 124.364 392.653 124.391 393.56V407H118.991V378.44H126.631L139.031 399.84H139.151C139.124 398.96 139.097 398.08 139.071 397.2C139.044 396.32 139.004 395.453 138.951 394.6C138.924 393.72 138.897 392.84 138.871 391.96V378.44H144.311V407ZM170.89 396.04C170.89 397.853 170.636 399.467 170.13 400.88C169.65 402.293 168.943 403.493 168.01 404.48C167.103 405.44 165.996 406.173 164.69 406.68C163.383 407.16 161.903 407.4 160.25 407.4C158.73 407.4 157.316 407.16 156.01 406.68C154.73 406.173 153.623 405.44 152.69 404.48C151.756 403.493 151.023 402.293 150.49 400.88C149.983 399.467 149.73 397.853 149.73 396.04C149.73 393.613 150.156 391.573 151.01 389.92C151.863 388.24 153.09 386.96 154.69 386.08C156.29 385.2 158.183 384.76 160.37 384.76C162.423 384.76 164.236 385.2 165.81 386.08C167.383 386.96 168.623 388.24 169.53 389.92C170.436 391.573 170.89 393.613 170.89 396.04ZM155.81 396.04C155.81 397.48 155.956 398.693 156.25 399.68C156.57 400.64 157.063 401.373 157.73 401.88C158.396 402.36 159.263 402.6 160.33 402.6C161.396 402.6 162.25 402.36 162.89 401.88C163.556 401.373 164.036 400.64 164.33 399.68C164.65 398.693 164.81 397.48 164.81 396.04C164.81 394.6 164.65 393.4 164.33 392.44C164.036 391.48 163.556 390.76 162.89 390.28C162.223 389.8 161.356 389.56 160.29 389.56C158.716 389.56 157.57 390.107 156.85 391.2C156.156 392.267 155.81 393.88 155.81 396.04ZM185.015 402.64C185.682 402.64 186.322 402.573 186.935 402.44C187.549 402.307 188.162 402.147 188.775 401.96V406.4C188.135 406.667 187.335 406.893 186.375 407.08C185.442 407.293 184.415 407.4 183.295 407.4C181.989 407.4 180.815 407.187 179.775 406.76C178.762 406.333 177.949 405.6 177.335 404.56C176.749 403.493 176.455 402.027 176.455 400.16V389.64H173.615V387.12L176.895 385.12L178.615 380.52H182.415V385.16H188.535V389.64H182.415V400.16C182.415 400.987 182.655 401.613 183.135 402.04C183.615 402.44 184.242 402.64 185.015 402.64ZM221.51 407L219.43 400.2H209.03L206.95 407H200.43L210.51 378.32H217.91L228.03 407H221.51ZM215.91 388.48C215.776 388.027 215.603 387.453 215.39 386.76C215.176 386.067 214.963 385.36 214.75 384.64C214.536 383.92 214.363 383.293 214.23 382.76C214.096 383.293 213.91 383.96 213.67 384.76C213.456 385.533 213.243 386.28 213.03 387C212.843 387.693 212.696 388.187 212.59 388.48L210.55 395.12H217.99L215.91 388.48ZM236.367 407L228.047 385.16H234.287L238.487 397.6C238.647 398.08 238.78 398.587 238.887 399.12C239.02 399.653 239.114 400.173 239.167 400.68C239.247 401.187 239.3 401.653 239.327 402.08H239.487C239.514 401.627 239.567 401.147 239.647 400.64C239.727 400.133 239.82 399.627 239.927 399.12C240.06 398.587 240.207 398.08 240.367 397.6L244.567 385.16H250.807L242.487 407H236.367ZM262.9 384.72C265.834 384.72 268.074 385.36 269.62 386.64C271.194 387.893 271.98 389.827 271.98 392.44V407H267.82L266.66 404.04H266.5C265.887 404.813 265.247 405.453 264.58 405.96C263.94 406.467 263.194 406.827 262.34 407.04C261.514 407.28 260.487 407.4 259.26 407.4C257.98 407.4 256.82 407.16 255.78 406.68C254.767 406.173 253.967 405.413 253.38 404.4C252.794 403.36 252.5 402.053 252.5 400.48C252.5 398.16 253.314 396.453 254.94 395.36C256.567 394.24 259.007 393.627 262.26 393.52L266.06 393.4V392.44C266.06 391.293 265.754 390.453 265.14 389.92C264.554 389.387 263.727 389.12 262.66 389.12C261.594 389.12 260.554 389.28 259.54 389.6C258.527 389.893 257.514 390.267 256.5 390.72L254.54 386.68C255.714 386.067 257.007 385.587 258.42 385.24C259.86 384.893 261.354 384.72 262.9 384.72ZM263.74 396.96C261.82 397.013 260.487 397.36 259.74 398C258.994 398.64 258.62 399.48 258.62 400.52C258.62 401.427 258.887 402.08 259.42 402.48C259.954 402.853 260.647 403.04 261.5 403.04C262.78 403.04 263.86 402.667 264.74 401.92C265.62 401.147 266.06 400.067 266.06 398.68V396.88L263.74 396.96ZM284.041 385.16V407H278.081V385.16H284.041ZM281.081 376.6C281.961 376.6 282.721 376.813 283.361 377.24C284.001 377.64 284.321 378.4 284.321 379.52C284.321 380.613 284.001 381.373 283.361 381.8C282.721 382.227 281.961 382.44 281.081 382.44C280.174 382.44 279.401 382.227 278.761 381.8C278.148 381.373 277.841 380.613 277.841 379.52C277.841 378.4 278.148 377.64 278.761 377.24C279.401 376.813 280.174 376.6 281.081 376.6ZM296.228 407H290.268V376.6H296.228V407ZM311.416 384.72C314.349 384.72 316.589 385.36 318.136 386.64C319.709 387.893 320.496 389.827 320.496 392.44V407H316.336L315.176 404.04H315.016C314.403 404.813 313.763 405.453 313.096 405.96C312.456 406.467 311.709 406.827 310.856 407.04C310.029 407.28 309.003 407.4 307.776 407.4C306.496 407.4 305.336 407.16 304.296 406.68C303.283 406.173 302.483 405.413 301.896 404.4C301.309 403.36 301.016 402.053 301.016 400.48C301.016 398.16 301.829 396.453 303.456 395.36C305.083 394.24 307.523 393.627 310.776 393.52L314.576 393.4V392.44C314.576 391.293 314.269 390.453 313.656 389.92C313.069 389.387 312.243 389.12 311.176 389.12C310.109 389.12 309.069 389.28 308.056 389.6C307.043 389.893 306.029 390.267 305.016 390.72L303.056 386.68C304.229 386.067 305.523 385.587 306.936 385.24C308.376 384.893 309.869 384.72 311.416 384.72ZM312.256 396.96C310.336 397.013 309.003 397.36 308.256 398C307.509 398.64 307.136 399.48 307.136 400.52C307.136 401.427 307.403 402.08 307.936 402.48C308.469 402.853 309.163 403.04 310.016 403.04C311.296 403.04 312.376 402.667 313.256 401.92C314.136 401.147 314.576 400.067 314.576 398.68V396.88L312.256 396.96ZM332.557 383.68C332.557 384.507 332.53 385.32 332.477 386.12C332.423 386.92 332.37 387.547 332.317 388H332.557C333.143 387.093 333.93 386.333 334.917 385.72C335.903 385.08 337.183 384.76 338.757 384.76C341.21 384.76 343.197 385.72 344.717 387.64C346.237 389.533 346.997 392.333 346.997 396.04C346.997 398.52 346.637 400.613 345.917 402.32C345.223 404 344.25 405.267 342.997 406.12C341.743 406.973 340.277 407.4 338.597 407.4C336.997 407.4 335.73 407.12 334.797 406.56C333.89 405.973 333.143 405.32 332.557 404.6H332.157L331.157 407H326.597V376.6H332.557V383.68ZM336.837 389.52C335.797 389.52 334.97 389.733 334.357 390.16C333.743 390.587 333.29 391.24 332.997 392.12C332.73 392.973 332.583 394.053 332.557 395.36V396C332.557 398.107 332.863 399.733 333.477 400.88C334.117 402 335.263 402.56 336.917 402.56C338.143 402.56 339.117 402 339.837 400.88C340.557 399.733 340.917 398.093 340.917 395.96C340.917 393.827 340.543 392.227 339.797 391.16C339.077 390.067 338.09 389.52 336.837 389.52ZM357.869 407H351.909V376.6H357.869V407ZM373.097 384.76C375.123 384.76 376.857 385.147 378.297 385.92C379.763 386.693 380.897 387.813 381.697 389.28C382.497 390.747 382.897 392.547 382.897 394.68V397.56H368.817C368.87 399.24 369.363 400.56 370.297 401.52C371.257 402.48 372.577 402.96 374.257 402.96C375.67 402.96 376.95 402.827 378.097 402.56C379.243 402.267 380.43 401.827 381.657 401.24V405.84C380.59 406.373 379.457 406.76 378.257 407C377.083 407.267 375.657 407.4 373.977 407.4C371.79 407.4 369.857 407 368.177 406.2C366.497 405.373 365.177 404.133 364.217 402.48C363.257 400.827 362.777 398.747 362.777 396.24C362.777 393.68 363.203 391.56 364.057 389.88C364.937 388.173 366.15 386.893 367.697 386.04C369.243 385.187 371.043 384.76 373.097 384.76ZM373.137 389C371.99 389 371.03 389.373 370.257 390.12C369.51 390.867 369.07 392.027 368.937 393.6H377.297C377.297 392.72 377.137 391.933 376.817 391.24C376.523 390.547 376.07 390 375.457 389.6C374.843 389.2 374.07 389 373.137 389Z" fill="white"/>
</svg>
